# xmcd CD database file
#
# Track frame offsets:
#	150
#	60981
#	134961
#	198028
#
# Disc length: 3800 seconds
#
# Revision: 1
# Processed by: cddbd v1.5.2PL0 Copyright (c) Steve Scherf et al.
# Submitted via: CDex 1.70beta2
#
DISCID=340ed604
DTITLE=Various Artist - Jazz Roads CD395 - Bebop - Bebop Live Concerts Vol.6 (1947)
DYEAR=1900
DGENRE=Jazz
TTITLE0=Bop Jam All Stars - What Is This Thing Called Love
TTITLE1=Bop Jam All Stars - Back Breaker
TTITLE2=Bop Jam All Stars - Blow Blow Blow (Rhythm)
TTITLE3=The Bopland Boys - Byas-A-Drink (Bopland)
EXTD=
EXTT0=
EXTT1=
EXTT2=
EXTT3=
PLAYORDER=
